<svg xmlns="http://www.w3.org/2000/svg" width="1000" height="500" viewBox="120 160 1000 500">
<g>
<path d="M 302.87 632.47 C291.41,634.12 266.55,634.34 256.50,632.88 C212.93,626.55 180.98,600.42 169.20,561.47 C164.85,547.09 163.74,536.91 164.32,517.00 C165.25,485.52 171.94,460.75 189.03,425.50 C207.61,387.19 231.88,354.17 268.50,317.43 C309.48,276.31 351.43,245.71 403.50,218.92 C441.28,199.49 474.33,187.73 507.50,181.91 C525.71,178.72 551.79,178.69 563.50,181.86 C582.47,187.00 592.74,195.67 598.10,211.08 C601.09,219.70 601.11,235.08 598.16,246.20 C594.00,261.82 584.66,279.81 571.49,297.59 C561.87,310.57 537.18,334.46 525.03,342.54 C515.42,348.92 514.13,349.50 509.35,349.50 C504.94,349.50 503.66,349.04 501.07,346.56 C498.52,344.13 498.00,342.85 498.00,339.06 C498.00,334.66 498.26,334.27 505.25,328.00 C521.79,313.19 544.11,289.98 551.90,279.50 C561.24,266.94 571.24,247.96 573.01,239.45 C574.84,230.62 573.97,221.66 570.95,218.44 C565.31,212.40 555.88,210.53 539.00,212.08 C496.42,216.02 434.05,246.11 378.50,289.52 C334.10,324.22 286.67,374.64 259.66,415.85 C232.65,457.08 219.00,494.28 219.00,526.66 C219.00,541.92 220.79,550.69 226.17,561.71 C233.38,576.50 248.01,587.55 267.00,592.55 C276.21,594.97 297.60,595.39 310.95,593.41 C358.22,586.40 415.35,561.28 493.14,513.32 C512.20,501.56 515.29,499.29 519.11,494.24 C535.59,472.40 562.67,451.27 587.45,440.92 C602.42,434.67 612.28,432.72 626.60,433.19 C637.83,433.55 639.19,433.82 645.30,436.83 C652.73,440.48 659.44,447.30 660.93,452.70 C661.96,456.43 661.53,458.52 659.19,461.25 C656.96,463.85 654.45,463.39 650.25,459.64 C645.28,455.20 643.28,454.24 637.42,453.48 C626.44,452.06 608.70,457.67 591.73,467.92 C562.09,485.84 531.77,518.79 528.39,536.76 C526.36,547.51 540.15,543.84 564.80,527.06 C581.80,515.48 610.18,493.04 625.18,479.31 C631.92,473.14 637.38,471.20 643.16,472.93 C652.00,475.58 652.86,481.88 646.56,497.88 C642.33,508.62 640.92,518.97 643.00,524.00 C645.36,529.70 652.64,531.45 662.08,528.59 C679.84,523.20 714.89,498.33 754.56,462.98 L 765.63 453.12 L 770.91 438.81 C792.34,380.74 826.32,318.21 863.20,269.00 C900.52,219.20 939.04,186.89 960.93,187.02 C966.44,187.06 972.36,190.24 975.10,194.63 C978.62,200.30 978.48,214.23 974.79,225.50 C968.61,244.34 959.42,262.26 943.48,286.50 C913.38,332.29 869.66,382.00 819.26,427.76 C799.27,445.91 801.08,443.32 794.19,463.50 C787.09,484.29 785.56,491.64 785.53,505.00 C785.50,516.46 785.70,517.86 787.95,521.77 C791.52,528.01 798.95,531.50 806.89,530.67 C828.97,528.36 864.16,508.26 909.87,471.83 C921.51,462.56 927.12,457.27 932.97,450.04 C947.20,432.48 957.12,421.52 960.82,419.26 C964.86,416.79 971.68,416.26 975.32,418.12 C981.62,421.34 982.94,429.16 978.17,435.02 C968.58,446.79 953.46,470.65 947.06,484.08 C937.58,503.99 937.86,515.66 947.96,520.75 C961.64,527.65 992.41,518.65 1050.23,490.85 C1063.46,484.49 1073.99,480.00 1075.28,480.18 C1079.36,480.76 1078.56,484.34 1073.30,488.98 C1061.32,499.57 1029.88,518.36 1007.76,528.16 C963.17,547.91 935.11,549.23 918.80,532.33 C911.03,524.29 908.14,510.63 911.33,497.01 C912.16,493.43 912.69,490.36 912.51,490.18 C912.32,489.99 908.87,492.63 904.84,496.03 C892.63,506.34 872.23,521.25 859.01,529.54 C815.01,557.11 784.27,560.39 765.21,539.54 C756.03,529.50 752.40,513.37 755.07,494.48 C755.88,488.71 756.21,484.00 755.79,484.00 C755.37,484.00 749.73,488.56 743.26,494.14 C707.11,525.29 677.58,544.81 659.54,549.46 C651.87,551.44 641.61,551.43 635.73,549.42 C626.94,546.43 618.69,536.83 616.45,527.00 C616.01,525.08 615.76,520.35 615.89,516.50 L 616.13 509.50 L 611.31 514.08 C590.28,534.09 562.29,555.30 546.23,563.39 C525.08,574.03 508.04,571.55 500.25,556.69 C497.98,552.34 497.54,550.25 497.55,543.78 L 497.55 536.06 L 495.03 537.67 C493.64,538.55 488.23,542.30 483.00,546.00 C409.21,598.22 352.91,625.25 302.87,632.47 ZM 817.02 407.39 C816.97,410.09 863.35,361.33 882.11,338.96 C925.42,287.31 956.56,236.56 958.63,214.25 C959.11,209.01 959.10,209.00 956.21,209.00 C951.74,209.00 940.93,217.28 927.98,230.63 C903.20,256.16 876.53,293.99 850.49,340.50 C842.71,354.41 817.04,405.69 817.02,407.39 ZM 1008.02 389.99 C998.02,395.09 986.99,391.57 983.93,382.29 C980.14,370.81 993.82,354.04 1007.00,354.01 C1014.49,353.99 1020.71,359.42 1021.71,366.84 C1022.78,374.83 1016.31,385.76 1008.02,389.99 Z" fill="rgb(2,2,2)"/>
<path d="M 0.00 0.00 L 1254.00 0.00 L 1254.00 836.00 L 0.00 836.00 ZM 265.50 638.29 C266.60,638.58 268.40,638.59 269.50,638.31 C273.67,637.27 298.73,636.00 304.03,636.56 C308.79,637.06 309.82,636.86 311.43,635.07 C312.98,633.37 314.32,633.04 319.00,633.25 C324.22,633.48 326.37,632.92 332.46,629.75 C333.53,629.18 336.01,628.53 337.96,628.28 C339.91,628.04 343.40,626.95 345.72,625.85 C348.05,624.75 350.41,624.13 350.97,624.48 C351.54,624.83 352.00,624.73 352.00,624.26 C352.00,623.31 358.30,620.81 361.66,620.44 C362.84,620.31 365.13,619.22 366.75,618.03 C369.48,616.01 373.51,614.60 380.31,613.30 C381.85,613.00 383.81,611.69 384.67,610.38 C385.53,609.07 387.06,608.00 388.07,608.00 C390.51,608.00 395.00,605.91 395.00,604.78 C395.00,604.29 395.39,604.12 395.87,604.42 C396.35,604.71 398.04,603.84 399.62,602.48 C401.20,601.12 402.95,599.97 403.50,599.92 C406.61,599.68 408.63,598.90 410.93,597.05 C412.34,595.91 414.49,594.55 415.71,594.03 C416.93,593.51 418.83,592.17 419.93,591.07 C421.04,589.96 423.20,588.76 424.72,588.40 C426.25,588.04 428.62,586.74 430.00,585.51 C431.38,584.28 434.98,582.07 438.00,580.60 C447.32,576.08 449.08,574.92 450.17,572.53 C451.57,569.45 455.46,567.81 459.52,568.57 C462.45,569.12 462.87,568.92 463.17,566.87 C463.35,565.59 464.62,564.00 466.00,563.32 C467.38,562.65 469.20,560.85 470.06,559.33 C471.16,557.39 472.80,556.32 475.55,555.75 C477.71,555.30 480.83,553.68 482.49,552.15 C485.18,549.67 490.98,546.47 491.43,547.21 C491.53,547.37 492.36,548.71 493.29,550.20 C494.22,551.68 494.76,553.48 494.49,554.20 C494.22,554.91 495.50,558.42 497.33,562.00 C500.30,567.79 501.05,568.56 504.20,569.07 C506.14,569.38 509.47,570.68 511.61,571.95 C518.02,575.75 520.74,576.17 525.15,574.04 C527.40,572.95 530.54,572.29 532.58,572.48 C535.28,572.73 536.68,572.22 538.61,570.30 C539.99,568.92 541.37,568.04 541.68,568.35 C541.99,568.66 543.88,568.09 545.87,567.08 C547.87,566.07 550.91,564.94 552.63,564.57 C554.36,564.20 557.62,562.30 559.89,560.36 C562.16,558.42 566.82,555.47 570.26,553.80 C573.69,552.12 578.30,548.99 580.50,546.83 C587.85,539.62 593.14,535.09 594.83,534.55 C595.76,534.26 597.61,532.24 598.96,530.07 C600.30,527.90 601.72,526.33 602.11,526.57 C602.51,526.81 602.98,526.61 603.16,526.13 C603.35,525.64 604.93,524.94 606.67,524.56 C609.55,523.94 609.79,524.07 609.29,525.99 C608.64,528.50 611.28,534.02 615.70,539.37 C618.22,542.42 618.78,543.86 618.33,546.12 C617.97,547.91 618.18,549.03 618.88,549.08 C619.49,549.13 621.69,549.19 623.75,549.22 C625.81,549.25 628.34,549.71 629.37,550.24 C630.68,550.91 631.04,550.87 630.56,550.10 C630.19,549.49 630.14,549.00 630.45,549.00 C630.76,549.00 631.74,550.80 632.62,553.00 C633.50,555.20 634.28,556.98 634.36,556.96 C640.09,555.17 645.04,554.44 647.21,555.06 C648.70,555.49 652.53,555.40 655.71,554.86 C658.89,554.32 663.15,553.64 665.17,553.34 C667.50,553.00 669.79,551.75 671.43,549.90 C672.85,548.31 674.35,546.97 674.76,546.92 C677.47,546.64 679.48,545.91 682.58,544.09 C684.52,542.94 686.98,542.00 688.03,542.00 C689.09,542.00 690.68,540.90 691.56,539.55 C692.44,538.21 695.19,536.33 697.67,535.38 C700.15,534.44 702.85,532.64 703.67,531.38 C704.49,530.13 706.70,528.59 708.58,527.97 C710.46,527.35 712.00,526.44 712.00,525.95 C712.00,525.45 713.39,524.33 715.10,523.45 C718.30,521.79 724.67,515.18 724.28,513.91 C723.93,512.73 726.97,510.66 729.32,510.48 C734.18,510.12 736.30,508.78 737.38,505.38 C737.73,504.27 739.59,502.61 741.51,501.70 C743.43,500.78 745.00,499.58 745.00,499.02 C745.00,498.46 745.90,498.00 747.00,498.00 C750.12,498.00 749.65,502.89 746.25,505.71 L 743.50 507.99 L 746.25 510.08 C749.19,512.31 749.97,516.63 747.81,518.79 C746.90,519.70 747.08,520.49 748.63,522.24 C752.59,526.71 754.06,529.92 753.39,532.60 C752.84,534.78 753.42,535.85 756.87,539.10 C759.14,541.25 761.45,543.00 762.00,543.00 C762.55,543.00 763.00,544.11 763.00,545.46 C763.00,548.19 764.97,549.61 769.46,550.15 C771.08,550.34 774.01,551.96 775.96,553.75 C779.02,556.55 780.24,557.00 785.00,557.07 C788.03,557.11 791.40,557.50 792.50,557.93 C793.69,558.41 796.32,558.14 799.00,557.28 C803.48,555.85 808.92,555.02 814.34,554.96 C815.90,554.95 818.18,554.27 819.41,553.47 C820.64,552.66 822.96,551.83 824.57,551.62 C828.46,551.10 831.00,550.00 831.00,548.83 C831.00,548.31 831.45,548.16 832.00,548.50 C832.55,548.84 833.00,548.61 833.00,548.00 C833.00,547.39 833.45,547.16 834.00,547.50 C834.55,547.84 835.00,547.70 835.00,547.18 C835.00,546.14 838.47,544.63 844.42,543.08 C846.58,542.52 849.58,540.72 851.08,539.08 C852.58,537.43 855.09,535.81 856.65,535.47 C861.80,534.37 864.00,533.07 864.00,531.14 C864.00,529.48 868.11,526.81 870.71,526.79 C871.14,526.78 872.73,525.90 874.24,524.83 C875.75,523.75 877.35,523.10 877.79,523.37 C878.97,524.10 880.30,522.89 882.03,519.51 C882.88,517.86 884.45,516.36 885.53,516.17 C886.62,515.98 888.85,514.34 890.50,512.52 C892.35,510.48 895.03,508.86 897.50,508.29 C901.22,507.43 901.71,507.58 904.45,510.43 C906.08,512.12 907.30,513.60 907.16,513.73 C906.58,514.27 904.00,521.03 904.00,521.99 C904.00,522.57 905.83,525.03 908.06,527.45 C910.29,529.87 912.24,532.99 912.39,534.37 C912.71,537.37 914.87,540.22 916.40,539.67 C917.01,539.45 918.62,539.85 920.00,540.57 C923.30,542.28 931.91,545.00 934.06,545.00 C934.99,545.00 936.41,545.99 937.22,547.20 C938.31,548.85 939.61,549.38 942.37,549.30 C944.40,549.24 946.68,548.68 947.45,548.04 C948.21,547.41 952.13,546.88 956.17,546.86 C960.20,546.84 965.30,546.40 967.50,545.88 C969.70,545.36 972.45,544.73 973.62,544.47 C974.78,544.22 977.35,543.33 979.33,542.50 C981.32,541.68 984.38,541.00 986.14,541.00 C987.90,541.00 990.11,540.30 991.06,539.45 C992.92,537.76 1003.00,533.65 1003.00,534.58 C1003.00,534.89 1003.71,534.44 1004.57,533.57 C1005.44,532.71 1007.15,532.00 1008.38,532.00 C1009.61,532.00 1012.08,530.92 1013.87,529.59 C1017.32,527.05 1020.70,525.56 1025.30,524.55 C1026.84,524.21 1029.54,522.49 1031.32,520.72 C1034.70,517.33 1035.50,516.96 1040.77,516.23 C1043.73,515.82 1046.67,513.01 1045.44,511.77 C1044.41,510.75 1047.68,509.20 1051.85,508.73 C1055.43,508.33 1057.20,507.28 1061.85,502.82 C1064.96,499.84 1069.15,496.66 1071.16,495.76 C1073.17,494.86 1075.64,492.93 1076.66,491.47 C1077.67,490.01 1079.51,487.88 1080.75,486.73 C1081.99,485.58 1083.00,483.84 1083.00,482.85 C1083.00,481.87 1081.99,480.54 1080.75,479.89 C1079.51,479.23 1078.28,478.42 1078.00,478.08 C1077.72,477.74 1076.28,476.92 1074.78,476.26 C1072.32,475.18 1071.63,475.40 1067.58,478.49 C1064.70,480.69 1062.33,481.76 1060.93,481.49 C1058.48,481.01 1055.56,482.29 1052.30,485.25 C1051.09,486.35 1048.67,487.42 1046.91,487.62 C1045.15,487.83 1043.05,488.54 1042.25,489.21 C1039.62,491.39 1031.09,495.89 1028.50,496.47 C1023.71,497.53 1021.21,498.53 1019.50,500.05 C1018.40,501.03 1015.81,502.15 1013.74,502.53 C1011.67,502.91 1008.94,504.05 1007.66,505.05 C1005.13,507.04 998.40,509.81 996.00,509.85 C993.17,509.90 986.50,511.92 982.08,514.07 C977.05,516.51 974.66,517.04 967.25,517.36 C964.37,517.49 961.47,518.13 960.80,518.80 C958.73,520.87 956.45,520.13 952.86,516.25 C950.96,514.19 948.52,512.00 947.45,511.39 C945.75,510.42 945.54,509.33 945.77,502.91 C945.93,498.86 946.49,495.11 947.02,494.58 C947.56,494.04 948.00,493.04 948.00,492.35 C948.00,491.66 949.31,489.16 950.91,486.79 C952.51,484.42 954.15,480.74 954.54,478.61 C954.94,476.49 956.14,474.02 957.21,473.12 C959.21,471.45 965.00,463.38 965.00,462.27 C965.00,461.17 974.42,447.53 975.77,446.68 C976.49,446.23 977.78,444.09 978.64,441.93 C980.06,438.39 981.01,437.54 983.21,437.87 C984.53,438.07 986.06,430.11 985.88,424.03 C985.71,418.46 985.52,417.99 983.35,417.88 C979.08,417.65 976.61,416.44 977.49,415.01 C978.37,413.59 971.03,411.73 966.79,412.30 C964.60,412.60 961.81,413.77 960.59,414.92 C959.37,416.06 957.40,417.00 956.22,417.00 C955.03,417.00 953.55,417.98 952.89,419.21 C952.24,420.42 949.19,423.97 946.10,427.10 C930.39,443.04 924.91,449.54 923.53,453.90 C922.85,456.05 919.26,458.59 918.28,457.62 C917.29,456.62 913.84,459.13 914.35,460.47 C914.84,461.75 909.71,466.50 905.32,468.84 C904.12,469.48 902.84,470.92 902.49,472.04 C902.13,473.16 900.09,474.78 897.96,475.63 C895.82,476.49 893.82,478.00 893.50,479.00 C892.75,481.36 890.77,482.97 887.93,483.51 C886.68,483.75 884.48,485.09 883.03,486.48 C881.58,487.86 879.94,489.00 879.39,489.00 C878.83,489.00 877.06,490.25 875.44,491.79 C873.82,493.32 870.61,495.40 868.31,496.41 C866.00,497.42 863.89,498.85 863.61,499.58 C863.33,500.31 861.28,501.84 859.05,502.98 C856.82,504.11 855.00,505.44 855.00,505.94 C855.00,507.02 848.52,511.15 847.34,510.83 C845.74,510.40 842.18,512.08 841.62,513.54 C841.26,514.48 839.66,515.00 837.15,515.00 C833.84,515.00 832.70,515.61 829.71,519.03 C827.77,521.25 825.80,522.99 825.34,522.91 C821.60,522.25 815.73,523.27 814.15,524.85 C809.85,529.15 799.01,527.96 797.72,523.04 C797.33,521.54 796.37,521.00 794.09,521.00 C792.33,521.00 790.96,520.46 790.92,519.75 C790.55,514.31 789.24,510.00 787.93,510.00 C787.42,510.00 787.04,508.76 787.08,507.25 C787.12,505.74 787.41,505.13 787.71,505.89 C788.74,508.50 790.97,499.60 790.98,492.81 C790.99,489.13 791.45,485.84 792.00,485.50 C792.55,485.16 793.02,483.67 793.04,482.19 C793.05,480.71 793.71,478.38 794.50,477.00 C795.29,475.62 795.95,473.54 795.96,472.37 C795.98,471.20 796.67,469.68 797.50,469.00 C798.33,468.32 799.00,466.43 799.00,464.81 C799.00,463.20 800.07,459.54 801.37,456.69 C802.68,453.83 804.15,450.15 804.64,448.50 C805.17,446.77 806.70,444.95 808.27,444.20 C809.77,443.48 811.00,442.25 811.00,441.47 C811.00,440.69 812.24,439.27 813.75,438.33 C816.75,436.45 824.00,429.03 824.00,427.84 C824.00,427.43 825.58,426.34 827.51,425.43 C829.44,424.51 832.03,422.62 833.26,421.21 C837.14,416.79 843.50,410.64 848.48,406.50 C851.12,404.30 853.78,401.96 854.39,401.30 C882.21,371.31 894.93,357.35 898.98,352.37 C901.27,349.56 904.20,346.70 905.49,346.00 C906.79,345.31 908.12,343.66 908.45,342.34 C908.78,341.01 910.17,339.51 911.53,338.99 C913.01,338.43 914.00,337.26 914.00,336.07 C914.00,334.22 924.71,319.66 930.24,314.00 C931.58,312.62 933.24,310.08 933.92,308.35 C934.60,306.62 936.30,304.14 937.69,302.85 C943.42,297.52 972.00,249.11 972.00,244.72 C972.00,244.17 973.35,241.53 975.00,238.85 C976.65,236.16 978.00,233.22 978.00,232.31 C978.00,230.70 979.04,226.83 981.18,220.50 C981.74,218.85 982.34,213.70 982.52,209.06 C982.80,201.65 982.53,199.99 980.31,195.56 C978.93,192.78 975.93,188.83 973.65,186.79 C969.70,183.26 969.16,183.08 962.38,183.04 C952.85,182.99 949.51,183.77 946.54,186.74 C944.52,188.76 943.42,189.11 940.75,188.61 C937.18,187.94 933.00,190.03 933.00,192.48 C933.00,193.23 930.82,194.56 928.16,195.45 C925.49,196.33 922.34,198.17 921.16,199.53 C919.98,200.89 918.35,202.00 917.53,202.00 C916.71,202.00 915.26,203.24 914.30,204.75 C913.34,206.26 911.95,207.87 911.22,208.33 C909.70,209.28 903.70,215.28 896.71,222.83 C894.08,225.67 891.48,228.00 890.94,228.00 C890.40,228.00 889.49,229.03 888.92,230.28 C888.34,231.54 886.56,233.45 884.94,234.53 C883.33,235.62 882.00,236.83 882.00,237.24 C882.00,237.65 880.66,239.18 879.02,240.64 C877.38,242.10 875.78,244.12 875.46,245.12 C875.14,246.13 873.73,247.52 872.33,248.22 C870.75,249.01 869.26,251.04 868.43,253.50 C867.61,255.99 865.20,259.24 862.07,262.09 C859.30,264.61 856.38,268.21 855.59,270.09 C854.80,271.96 852.34,275.37 850.13,277.66 C847.91,279.94 845.42,283.45 844.59,285.44 C842.93,289.42 841.35,291.29 838.89,292.22 C837.96,292.57 837.01,294.52 836.64,296.84 C836.21,299.55 835.10,301.56 833.25,303.01 C831.61,304.29 830.08,306.82 829.47,309.27 C828.73,312.19 827.58,313.84 825.49,315.01 C823.30,316.22 822.33,317.69 821.74,320.66 C821.30,322.87 820.10,325.59 819.06,326.71 C816.72,329.21 800.52,359.11 795.87,369.50 C795.38,370.60 794.07,372.99 792.97,374.82 C791.87,376.64 790.84,378.89 790.68,379.82 C790.53,380.74 789.78,382.62 789.01,384.00 C786.06,389.30 783.01,395.53 783.00,396.27 C783.00,396.69 781.95,398.72 780.66,400.77 C778.49,404.21 777.27,407.79 776.72,412.29 C776.60,413.27 776.00,414.40 775.40,414.79 C773.58,415.96 769.00,427.79 769.00,431.32 C769.00,432.24 768.56,433.00 768.02,433.00 C767.48,433.00 766.74,434.24 766.38,435.75 C766.02,437.26 765.39,438.95 764.98,439.50 C764.57,440.05 763.93,441.85 763.57,443.50 C762.86,446.74 756.10,454.77 752.63,456.50 C751.46,457.08 750.44,458.11 750.38,458.78 C750.31,459.45 750.19,460.70 750.12,461.56 C750.06,462.42 749.60,462.87 749.10,462.56 C748.61,462.26 747.14,463.15 745.85,464.54 C744.56,465.94 742.12,467.68 740.42,468.42 C738.69,469.17 736.81,471.04 736.13,472.69 C735.35,474.56 733.70,476.07 731.59,476.83 C729.76,477.49 726.07,480.07 723.38,482.57 C720.70,485.07 716.81,488.22 714.75,489.57 C712.69,490.92 711.00,492.69 711.00,493.51 C711.00,494.33 710.37,495.00 709.59,495.00 C708.81,495.00 705.90,496.80 703.12,499.00 C700.34,501.20 697.60,503.00 697.03,503.00 C696.46,503.00 695.12,503.88 694.05,504.95 C692.98,506.02 690.75,507.60 689.08,508.46 C687.42,509.32 685.52,511.03 684.87,512.26 C683.13,515.53 680.89,516.90 677.50,516.79 C674.14,516.68 668.53,519.24 667.30,521.43 C666.31,523.20 657.63,527.00 654.58,527.00 C653.14,527.00 651.91,526.09 651.18,524.50 C650.56,523.12 649.39,522.00 648.59,522.00 C646.69,522.00 646.25,518.68 647.35,512.50 C647.84,509.75 648.30,506.14 648.37,504.48 C648.44,502.82 649.51,500.38 650.74,499.05 C651.97,497.73 653.26,495.04 653.60,493.07 C653.94,491.11 654.85,488.50 655.61,487.29 C657.38,484.47 657.36,482.48 655.57,479.15 C654.78,477.69 653.87,475.26 653.55,473.75 C653.05,471.41 652.46,471.00 649.60,471.00 C647.76,471.00 645.76,470.41 645.16,469.70 C643.74,467.98 637.44,467.67 631.46,469.01 C627.09,469.99 624.92,471.56 621.65,476.09 C620.22,478.06 611.80,483.52 610.68,483.19 C610.22,483.06 610.14,483.41 610.48,483.98 C610.83,484.54 610.67,485.00 610.13,485.00 C609.58,485.00 608.88,485.80 608.57,486.79 C608.01,488.54 597.88,496.00 596.06,496.00 C595.55,496.00 594.85,496.91 594.49,498.02 C593.76,500.32 584.38,507.00 581.89,507.00 C580.11,507.00 577.68,509.35 578.55,510.22 C579.41,511.08 573.02,516.00 571.05,516.00 C570.06,516.00 568.68,516.67 568.00,517.50 C567.32,518.33 566.30,519.00 565.74,519.00 C564.47,519.00 561.01,522.94 560.98,524.40 C560.96,526.31 559.42,528.03 557.43,528.39 C556.37,528.58 553.77,529.05 551.65,529.43 C549.46,529.83 546.65,531.31 545.10,532.90 C542.73,535.32 537.35,538.00 534.85,538.00 C533.18,538.00 534.04,534.03 536.50,530.40 C537.88,528.38 539.00,526.09 539.00,525.31 C539.00,522.50 543.44,516.27 546.18,515.24 C549.19,514.10 549.50,513.56 550.47,507.75 C550.81,505.69 551.63,504.00 552.30,504.00 C552.96,503.99 556.75,500.84 560.73,497.00 C564.71,493.15 568.42,490.00 568.98,490.00 C569.54,490.00 570.24,490.01 570.53,490.03 C570.82,490.05 574.14,486.90 577.90,483.03 C581.66,479.16 585.15,476.00 585.65,476.00 C586.15,476.00 587.33,475.10 588.27,474.00 C589.21,472.90 591.11,472.00 592.49,472.00 C593.94,472.00 596.60,470.55 598.83,468.54 C603.31,464.48 610.89,461.00 615.21,461.00 C616.89,461.00 619.79,460.06 621.65,458.91 C624.47,457.17 626.02,456.92 631.01,457.41 C634.72,457.77 637.00,457.62 637.00,457.00 C637.00,454.67 639.24,456.31 641.77,460.50 C644.44,464.93 644.57,465.00 649.83,465.00 C652.76,465.00 655.02,464.64 654.83,464.19 C654.61,463.64 653.02,462.07 651.10,460.38 C653.94,462.73 655.97,463.41 657.69,462.50 C655.98,463.72 656.03,463.87 657.66,464.22 C662.56,465.29 665.91,461.31 666.72,453.46 C667.21,448.64 667.02,447.95 664.54,445.67 C660.51,441.97 660.39,441.85 656.48,437.31 C652.12,432.24 646.04,429.96 637.56,430.20 C633.75,430.30 631.48,429.94 631.23,429.18 C630.75,427.75 617.00,427.53 617.00,428.95 C617.00,429.51 614.91,429.66 611.98,429.31 C607.93,428.83 606.57,429.08 604.90,430.59 C603.61,431.76 601.16,432.52 598.43,432.61 C596.01,432.69 592.97,433.44 591.68,434.29 C589.42,435.77 581.30,437.50 579.74,436.83 C579.32,436.65 578.09,437.96 577.01,439.75 C575.62,442.03 574.28,443.00 572.52,443.00 C571.10,443.00 569.48,443.86 568.77,445.00 C568.08,446.10 566.71,447.00 565.73,447.00 C562.25,447.00 557.43,449.90 551.53,455.57 C547.13,459.78 544.83,461.27 542.84,461.21 C541.35,461.17 539.54,461.87 538.82,462.76 C537.72,464.11 537.73,464.25 538.84,463.58 C539.57,463.14 539.08,464.50 537.75,466.60 C536.15,469.13 534.26,470.69 532.13,471.25 C530.09,471.78 528.58,472.97 527.99,474.54 C527.47,475.89 526.60,477.00 526.05,477.00 C525.50,477.00 524.09,479.24 522.92,481.97 C521.74,484.70 519.99,487.19 519.01,487.50 C518.04,487.80 515.18,490.41 512.66,493.28 C505.15,501.83 503.79,503.00 501.38,503.00 C500.12,503.00 498.05,504.05 496.79,505.34 C495.53,506.62 492.33,508.47 489.68,509.45 C486.62,510.57 484.46,512.10 483.77,513.61 C483.11,515.06 481.83,516.00 480.50,516.00 C479.31,516.00 477.16,517.32 475.72,518.93 C473.85,521.03 471.80,522.06 468.50,522.55 C463.81,523.26 461.00,525.10 461.00,527.46 C461.00,529.10 458.56,530.23 454.01,530.71 C450.03,531.12 444.50,535.86 443.54,539.68 C443.04,541.67 442.53,541.98 440.72,541.38 C437.45,540.29 432.61,540.35 431.77,541.50 C431.36,542.05 431.02,543.51 431.02,544.75 C431.01,545.99 430.44,547.07 429.75,547.15 C429.06,547.24 428.05,547.41 427.50,547.54 C426.95,547.66 425.11,547.82 423.41,547.88 C421.21,547.97 419.07,549.24 415.90,552.36 C412.19,556.03 410.99,556.65 408.40,556.27 C406.30,555.96 404.75,556.40 403.50,557.64 C401.59,559.56 394.60,563.00 392.63,563.00 C392.00,563.00 390.34,564.05 388.95,565.34 C386.56,567.56 384.44,568.37 377.50,569.69 C375.85,570.01 373.38,571.05 372.00,572.00 C369.35,573.84 367.21,574.63 362.74,575.40 C358.00,576.21 355.56,577.19 353.88,578.94 C352.86,580.01 349.07,581.11 343.62,581.92 C338.87,582.63 334.74,583.61 334.44,584.10 C334.13,584.60 332.87,585.00 331.64,585.00 C330.41,585.00 328.94,585.46 328.37,586.03 C327.81,586.59 324.08,587.27 320.09,587.53 C316.09,587.79 311.90,588.65 310.78,589.44 C309.37,590.43 307.27,590.70 304.00,590.31 C301.01,589.96 299.02,590.17 298.58,590.88 C297.74,592.23 289.79,592.38 288.45,591.07 C287.31,589.95 272.19,587.80 267.11,588.03 C261.68,588.28 261.53,588.23 258.16,585.00 C255.49,582.45 254.03,581.88 250.49,582.02 C248.16,582.11 243.85,578.48 243.35,576.02 C242.94,573.96 241.91,572.82 239.82,572.09 C237.72,571.36 236.40,569.89 235.29,567.05 C234.42,564.85 232.96,562.80 232.03,562.51 C229.89,561.83 225.26,547.88 224.22,539.00 C223.55,533.22 223.57,524.07 224.29,508.50 C224.42,505.75 225.08,502.52 225.76,501.32 C226.44,500.11 227.00,498.17 227.00,497.00 C227.00,495.83 227.40,494.11 227.89,493.18 C228.38,492.26 228.99,489.91 229.25,487.97 C229.51,486.03 230.88,481.98 232.29,478.97 C233.70,475.96 235.62,471.36 236.56,468.75 C237.50,466.14 238.62,464.00 239.04,464.00 C239.47,464.00 240.61,461.47 241.58,458.38 C242.55,455.29 244.34,451.80 245.55,450.63 C246.76,449.46 248.02,446.70 248.35,444.50 C248.68,442.31 249.57,440.06 250.32,439.50 C251.88,438.36 255.00,432.67 255.00,430.97 C255.00,430.35 256.58,427.91 258.50,425.57 C260.42,423.22 262.01,420.89 262.02,420.40 C262.03,419.90 263.15,418.44 264.52,417.15 C265.88,415.85 267.00,414.37 267.00,413.85 C267.00,412.06 275.18,400.50 278.09,398.18 C279.69,396.90 281.00,395.06 281.00,394.08 C281.00,393.11 282.46,390.72 284.25,388.79 C289.81,382.77 297.71,373.72 301.96,368.50 C310.21,358.37 315.31,353.00 316.69,353.00 C317.47,353.00 318.76,351.42 319.56,349.50 C320.57,347.10 321.68,346.00 323.10,346.00 C324.49,346.00 325.55,345.00 326.32,342.96 C327.00,341.17 328.41,339.68 329.77,339.34 C331.03,339.03 332.69,337.56 333.45,336.10 C334.21,334.63 335.99,332.81 337.41,332.05 C338.84,331.28 340.00,329.91 340.00,329.00 C340.00,328.09 341.12,326.74 342.50,326.00 C343.88,325.26 345.00,324.29 345.00,323.84 C345.00,323.39 346.76,321.91 348.92,320.55 C351.08,319.19 353.13,317.16 353.49,316.04 C353.84,314.92 355.23,313.73 356.58,313.39 C358.03,313.03 359.26,311.81 359.62,310.39 C359.95,309.08 360.96,307.99 361.86,307.99 C362.76,307.98 365.75,305.70 368.50,302.92 C371.25,300.14 375.08,296.92 377.00,295.77 C381.81,292.89 385.04,289.88 384.41,288.85 C384.12,288.38 385.06,288.00 386.51,288.00 C388.21,288.00 390.29,286.77 392.44,284.50 C394.25,282.58 396.21,281.00 396.80,281.00 C397.39,281.00 398.83,279.64 400.02,277.98 C401.20,276.32 403.62,274.35 405.39,273.61 C407.16,272.87 410.92,270.52 413.74,268.38 C416.57,266.25 421.59,263.43 424.90,262.11 C428.21,260.80 431.05,259.36 431.21,258.92 C431.37,258.47 433.98,256.78 437.00,255.15 C440.12,253.48 442.39,251.60 442.25,250.81 C442.09,249.90 443.12,249.34 445.23,249.18 C447.00,249.04 449.46,248.27 450.69,247.47 C451.92,246.66 453.53,246.00 454.26,246.00 C455.00,246.00 458.36,243.99 461.74,241.53 C465.12,239.07 469.15,236.80 470.69,236.48 C472.24,236.16 474.17,235.73 475.00,235.52 C475.83,235.32 477.08,235.12 477.80,235.08 C478.51,235.03 480.16,233.85 481.46,232.45 C482.89,230.90 485.33,229.69 487.66,229.37 C492.39,228.71 497.00,227.03 497.00,225.96 C497.00,224.43 506.87,221.90 511.94,222.13 C516.58,222.34 517.39,222.03 520.77,218.79 C523.68,216.01 524.94,215.40 526.50,216.04 C529.29,217.18 533.77,217.19 534.17,216.05 C534.35,215.53 538.73,214.78 543.90,214.39 C550.91,213.87 553.13,213.98 552.60,214.84 C552.18,215.51 552.49,216.00 553.32,216.00 C554.11,216.00 555.32,216.68 556.00,217.50 C556.71,218.35 558.89,219.00 561.05,219.00 C567.42,219.00 569.61,222.99 566.52,228.97 C565.21,231.50 565.21,232.17 566.51,234.67 C568.42,238.32 568.41,243.41 566.50,245.00 C565.67,245.68 565.00,246.69 565.00,247.23 C565.00,247.78 562.99,251.10 560.53,254.61 C558.08,258.12 555.92,262.11 555.74,263.46 C555.56,264.82 555.09,266.24 554.70,266.63 C554.32,267.02 554.00,268.08 554.00,269.00 C554.00,269.92 552.18,272.12 549.97,273.91 C547.75,275.69 544.75,279.03 543.30,281.33 C541.86,283.62 539.60,286.62 538.29,288.00 C536.97,289.38 533.11,293.51 529.70,297.19 C526.29,300.87 521.60,305.90 519.27,308.37 C516.95,310.84 512.40,314.35 509.15,316.18 C505.91,318.01 503.25,319.85 503.24,320.28 C503.16,323.22 501.75,325.19 499.06,326.13 C495.19,327.48 493.00,331.48 494.06,335.25 C494.64,337.33 494.48,338.00 493.39,338.00 C492.60,338.00 491.43,339.15 490.79,340.55 C489.73,342.90 490.00,343.47 494.15,347.62 C497.53,351.00 499.55,352.21 502.18,352.42 C504.12,352.57 506.24,353.03 506.89,353.43 C507.55,353.84 508.63,353.73 509.29,353.20 C509.96,352.66 512.89,351.90 515.81,351.51 C518.78,351.11 521.85,350.02 522.81,349.03 C523.74,348.05 525.96,346.51 527.75,345.60 C529.54,344.69 531.00,343.56 531.00,343.08 C531.00,342.60 532.55,341.59 534.45,340.84 C536.35,340.08 540.83,336.66 544.42,333.23 C548.00,329.80 551.35,327.00 551.87,327.00 C552.38,327.00 553.73,325.42 554.87,323.50 C556.00,321.58 557.55,320.00 558.31,320.00 C559.06,320.00 560.20,318.87 560.83,317.48 C561.46,316.09 563.12,314.53 564.51,313.99 C565.91,313.46 567.30,312.24 567.60,311.27 C568.51,308.32 576.88,296.72 581.85,291.50 C583.43,289.85 585.30,286.92 586.01,285.00 C586.73,283.08 588.54,280.15 590.03,278.50 C591.52,276.85 593.02,274.00 593.36,272.17 C593.70,270.33 594.81,267.63 595.82,266.17 C597.90,263.14 599.08,260.08 601.47,251.50 C602.38,248.20 603.55,244.47 604.07,243.20 C605.41,239.90 605.16,233.79 603.60,231.74 C601.95,229.56 600.78,230.76 600.00,235.52 C600.55,229.69 600.47,223.65 599.76,218.47 C600.04,219.80 600.32,221.23 600.61,222.75 C601.18,225.73 604.71,225.72 606.07,222.74 C606.84,221.06 606.70,219.52 605.54,216.74 C604.68,214.68 603.53,213.00 602.99,213.00 C602.44,213.00 602.00,210.49 602.00,207.41 C602.00,202.20 601.81,201.75 599.18,200.76 C596.38,199.70 594.81,197.16 593.55,191.63 C592.91,188.81 592.80,188.77 587.86,189.42 C584.46,189.88 583.03,189.75 583.47,189.05 C583.83,188.47 583.64,188.00 583.06,188.00 C582.48,188.00 582.00,187.19 582.00,186.19 C582.00,182.74 579.67,181.07 574.18,180.59 C571.25,180.33 568.32,179.71 567.68,179.21 C567.03,178.70 564.32,177.76 561.66,177.11 C558.99,176.46 555.79,175.25 554.53,174.43 C552.65,173.20 551.47,173.14 547.88,174.08 C542.05,175.60 522.28,177.08 518.50,176.28 C514.44,175.42 510.82,175.90 508.96,177.55 C507.90,178.50 505.67,178.79 501.76,178.49 C496.92,178.12 495.28,178.49 490.45,181.03 C486.13,183.30 483.46,184.00 479.15,184.01 C474.89,184.02 472.07,184.75 467.67,186.98 C464.46,188.61 460.19,190.24 458.17,190.61 C456.15,190.98 453.61,191.89 452.53,192.64 C451.44,193.39 448.73,194.00 446.50,194.00 C442.62,194.00 439.74,195.37 435.61,199.17 C434.58,200.12 432.44,201.15 430.86,201.45 C429.29,201.75 426.62,202.27 424.94,202.59 C423.26,202.92 420.53,204.50 418.88,206.12 C417.23,207.73 415.48,208.80 414.99,208.49 C413.89,207.81 407.97,210.20 405.96,212.12 C402.91,215.05 398.96,217.00 396.07,217.00 C394.09,217.00 392.71,217.68 392.00,219.00 C391.41,220.10 390.33,221.00 389.60,221.00 C388.87,221.00 386.61,222.32 384.57,223.94 C382.54,225.56 378.89,227.64 376.46,228.57 C374.04,229.49 371.82,231.00 371.53,231.91 C371.03,233.49 366.17,236.11 363.00,236.51 C362.17,236.62 360.99,236.77 360.37,236.85 C359.74,236.93 359.00,237.91 358.71,239.01 C358.42,240.12 356.56,241.70 354.59,242.53 C352.62,243.35 351.00,244.46 351.00,244.99 C351.00,245.53 349.76,246.27 348.25,246.64 C344.28,247.62 340.91,250.03 341.67,251.36 C342.03,251.99 341.95,252.16 341.49,251.75 C341.04,251.33 339.95,251.63 339.08,252.39 C338.21,253.16 336.60,253.96 335.50,254.16 C334.32,254.37 333.37,255.46 333.17,256.82 C332.99,258.08 331.87,259.50 330.67,259.97 C329.48,260.43 326.98,261.39 325.13,262.08 C323.28,262.77 321.03,264.10 320.13,265.04 C314.21,271.19 295.22,286.21 292.72,286.71 C290.81,287.09 289.09,288.44 287.87,290.49 C286.84,292.25 284.91,294.18 283.58,294.78 C282.26,295.38 280.88,296.81 280.52,297.94 C280.16,299.07 279.45,300.00 278.93,300.00 C276.40,300.00 274.00,302.07 274.00,304.24 C274.00,305.68 269.21,310.32 264.63,313.32 C263.18,314.27 262.00,315.70 262.00,316.50 C262.00,317.30 260.76,318.73 259.25,319.68 C255.56,321.99 242.62,335.01 242.38,336.64 C242.17,338.01 230.30,353.21 225.09,358.76 C223.41,360.56 221.77,363.09 221.44,364.39 C221.11,365.69 219.73,367.26 218.37,367.88 C217.01,368.50 215.28,370.47 214.54,372.26 C213.79,374.05 211.68,377.16 209.84,379.18 C204.67,384.85 202.37,388.25 201.61,391.34 C201.23,392.90 199.81,395.28 198.46,396.63 C197.11,397.98 196.00,399.46 196.00,399.92 C196.00,401.95 191.03,411.68 189.12,413.40 C187.95,414.45 187.00,415.92 187.00,416.67 C187.00,418.02 185.48,421.14 183.42,424.00 C182.83,424.83 181.78,427.49 181.08,429.93 C180.38,432.36 179.22,435.29 178.49,436.43 C177.76,437.57 176.66,440.41 176.04,442.75 C175.43,445.09 174.51,447.00 174.01,447.00 C173.51,447.00 172.36,449.59 171.44,452.75 C170.53,455.91 169.38,459.28 168.89,460.24 C168.40,461.19 168.00,463.01 168.00,464.29 C168.00,465.56 167.52,467.08 166.92,467.68 C165.86,468.74 164.40,473.64 163.41,479.50 C163.13,481.15 162.22,485.42 161.38,489.00 C160.25,493.84 160.12,496.20 160.90,498.25 C162.93,503.56 164.65,501.53 166.42,491.75 C166.80,489.61 167.23,487.47 167.68,485.31 C165.70,495.54 164.65,505.85 164.32,517.00 C163.99,528.44 164.21,536.67 165.29,544.33 C164.57,540.92 163.89,539.78 162.62,539.38 C160.78,538.80 160.76,538.65 162.31,537.51 C163.77,536.45 164.00,534.16 164.00,520.64 L 164.00 505.00 L 161.59 505.00 C159.48,505.00 159.11,505.58 158.55,509.75 C157.57,517.11 157.67,524.90 158.83,531.79 C159.42,535.26 159.68,538.67 159.41,539.37 C158.96,540.55 159.58,544.81 161.99,557.00 C163.66,565.48 164.32,567.42 166.16,569.40 C167.41,570.75 168.00,572.89 168.00,576.14 C168.00,580.42 168.36,581.17 171.56,583.61 C175.28,586.45 177.97,590.65 178.04,593.70 C178.09,596.29 181.97,600.45 185.72,601.94 C187.49,602.64 189.20,604.07 189.53,605.11 C189.87,606.15 190.95,607.44 191.94,607.97 C192.93,608.50 194.01,610.29 194.34,611.96 C194.81,614.28 195.49,615.00 197.23,615.00 C198.48,615.00 200.70,616.01 202.18,617.25 C205.82,620.32 210.72,623.10 215.42,624.79 C217.57,625.56 220.50,627.04 221.92,628.09 C223.34,629.14 226.98,630.67 230.00,631.50 C245.51,635.77 251.18,637.00 252.23,636.36 C253.75,635.42 262.31,635.88 262.98,636.94 C263.26,637.40 264.40,638.00 265.50,638.29 ZM 844.18 372.99 C840.77,376.09 839.49,376.60 838.61,375.18 C837.81,373.89 840.85,368.72 843.81,366.34 C845.29,365.15 846.18,363.86 845.79,363.46 C845.40,363.07 845.82,361.34 846.71,359.62 C847.61,357.91 848.50,355.15 848.69,353.50 C848.88,351.78 850.30,349.31 852.01,347.70 C853.66,346.16 855.00,343.90 855.00,342.69 C855.00,341.47 856.03,339.36 857.29,337.99 C858.55,336.62 860.21,333.94 861.00,332.04 C862.84,327.55 868.22,319.17 871.31,316.00 C872.64,314.62 874.01,312.04 874.34,310.25 C875.09,306.24 877.78,302.00 879.57,302.00 C880.30,302.00 881.35,300.39 881.90,298.42 C882.44,296.45 883.81,294.03 884.94,293.06 C886.06,292.08 887.63,289.75 888.42,287.89 C889.21,286.02 892.14,281.69 894.93,278.24 C897.72,274.80 900.00,271.60 900.00,271.12 C900.00,270.64 900.71,269.66 901.58,268.94 C902.45,268.21 904.22,265.57 905.52,263.06 C908.14,258.00 915.14,250.52 919.00,248.65 C920.38,247.99 921.56,246.89 921.62,246.22 C921.69,245.55 921.81,244.32 921.88,243.50 C921.94,242.68 922.59,242.00 923.32,242.00 C926.88,242.00 933.97,232.45 933.16,228.75 C933.07,228.34 933.74,228.00 934.66,228.00 C936.63,228.00 942.58,223.62 945.84,219.77 C947.13,218.25 949.00,217.00 950.01,217.00 C952.77,217.00 952.00,223.74 948.98,226.02 C947.32,227.27 946.86,228.36 947.30,230.03 C947.99,232.67 946.06,237.87 943.65,239.87 C942.74,240.63 942.00,242.14 942.00,243.24 C942.00,245.45 938.05,253.00 936.89,253.00 C936.49,253.00 935.63,254.59 934.99,256.53 C933.51,261.02 928.07,269.14 922.41,275.30 C919.29,278.69 918.00,280.95 918.00,283.03 C918.00,285.24 916.68,287.28 912.63,291.33 C909.67,294.29 906.71,298.34 906.05,300.33 C905.40,302.33 903.54,304.90 901.93,306.05 C900.32,307.20 899.00,308.75 899.00,309.50 C899.00,310.24 898.43,311.45 897.74,312.18 C897.04,312.91 895.68,314.74 894.71,316.25 C893.75,317.76 892.30,319.00 891.49,319.00 C890.69,319.00 889.34,320.65 888.49,322.67 C887.65,324.69 886.07,326.97 884.97,327.73 C883.88,328.50 882.25,330.56 881.35,332.31 C880.44,334.06 878.20,336.79 876.35,338.38 C874.51,339.96 873.00,341.85 873.00,342.57 C873.00,343.29 871.65,344.68 870.00,345.66 C868.35,346.63 867.00,347.72 867.00,348.08 C867.00,349.31 860.82,356.51 858.85,357.57 C857.76,358.16 856.32,359.74 855.65,361.07 C854.99,362.41 852.88,364.24 850.97,365.15 C849.06,366.05 847.50,367.51 847.49,368.38 C847.48,369.26 845.99,371.33 844.18,372.99 ZM 987.62 394.11 C991.78,395.98 1001.61,395.67 1003.91,393.59 C1005.12,392.49 1006.64,392.18 1008.74,392.60 C1011.36,393.12 1012.46,392.62 1016.21,389.16 C1025.30,380.79 1029.77,366.77 1024.92,361.92 C1023.78,360.78 1022.39,358.54 1021.84,356.96 C1020.78,353.94 1019.59,353.26 1014.16,352.63 C1012.34,352.42 1010.34,351.74 1009.72,351.12 C1008.40,349.80 1002.00,349.60 1002.00,350.88 C1002.00,351.37 1000.01,352.26 997.58,352.88 C995.14,353.49 992.56,354.58 991.83,355.30 C991.10,356.02 989.74,356.90 988.81,357.25 C987.88,357.60 986.31,359.15 985.33,360.70 C984.35,362.24 983.27,363.73 982.92,364.00 C981.69,364.99 980.00,368.91 980.00,370.78 C980.00,371.83 979.10,373.50 978.00,374.50 C975.63,376.64 975.46,378.31 977.45,379.96 C978.25,380.62 979.19,383.08 979.54,385.42 C980.28,390.33 981.14,392.02 983.10,392.42 C983.87,392.57 985.90,393.33 987.62,394.11 ZM 278.38 307.74 C286.95,299.41 295.06,291.92 301.00,286.98 C305.32,283.39 309.60,279.92 313.87,276.56 C341.21,254.63 370.30,236.00 403.50,218.92 C370.87,235.71 342.78,253.73 313.87,276.56 C301.76,286.26 290.00,296.60 278.38,307.74 ZM 298.10 594.53 C309.49,593.75 322.04,591.71 334.59,588.49 C347.23,585.25 360.33,580.99 374.20,575.57 C351.00,584.72 330.16,590.56 310.95,593.41 C307.16,593.97 302.72,594.34 298.10,594.53 ZM 566.72 303.52 C566.30,304.03 565.88,304.55 565.45,305.06 C556.90,315.31 542.19,329.32 531.12,338.03 C542.02,329.35 557.25,314.59 566.72,303.52 ZM 230.68 359.53 C233.00,356.54 235.38,353.55 237.82,350.57 C241.98,345.47 248.09,338.71 255.01,331.40 C246.14,340.90 238.07,350.22 230.68,359.53 ZM 179.80 445.98 C184.37,434.55 189.86,423.01 196.24,411.43 C193.74,416.05 191.34,420.74 189.03,425.50 C185.53,432.72 182.47,439.49 179.80,445.98 ZM 302.87 632.47 C292.37,633.98 274.86,634.37 263.05,633.50 C274.91,634.22 293.43,633.83 302.87,632.47 ZM 167.57 555.65 C168.05,557.54 168.59,559.46 169.20,561.47 C175.83,583.38 188.84,601.24 206.72,613.80 C187.21,600.16 173.60,580.25 167.57,555.65 ZM 632.18 453.30 C621.08,453.98 606.17,459.20 591.75,467.91 C606.22,459.17 621.26,453.80 632.18,453.30 ZM 658.33 447.62 C655.38,443.52 650.52,439.39 645.30,436.83 C651.08,439.67 655.59,443.60 658.33,447.62 ZM 245.55 583.18 C237.00,577.57 230.34,570.27 226.17,561.71 C230.30,570.18 237.09,577.56 245.55,583.18 ZM 596.79 207.69 C595.76,205.27 594.59,203.03 593.25,200.96 C594.67,203.00 595.81,205.14 596.79,207.69 ZM 578.43 187.58 C574.18,185.29 569.24,183.42 563.50,181.86 C569.58,183.51 574.34,185.30 578.43,187.58 ZM 650.00 459.42 C648.60,458.22 647.14,457.05 645.98,456.21 C647.18,457.00 648.44,458.04 650.00,459.42 ZM 659.01 461.46 C659.07,461.39 659.13,461.32 659.19,461.25 C659.71,460.65 660.13,460.09 660.46,459.52 C660.10,460.22 659.62,460.87 659.01,461.46 Z" fill="none"/>
<path d="M 265.50 638.29 C264.40,638.00 263.26,637.40 262.98,636.94 C262.31,635.88 253.75,635.42 252.23,636.36 C251.18,637.00 245.51,635.77 230.00,631.50 C226.98,630.67 223.34,629.14 221.92,628.09 C220.50,627.04 217.57,625.56 215.42,624.79 C210.72,623.10 205.82,620.32 202.18,617.25 C200.70,616.01 198.48,615.00 197.23,615.00 C195.49,615.00 194.81,614.28 194.34,611.96 C194.01,610.29 192.93,608.50 191.94,607.97 C190.95,607.44 189.87,606.15 189.53,605.11 C189.20,604.07 187.49,602.64 185.72,601.94 C181.97,600.45 178.09,596.29 178.04,593.70 C177.97,590.65 175.28,586.45 171.56,583.61 C168.36,581.17 168.00,580.42 168.00,576.14 C168.00,572.89 167.41,570.75 166.16,569.40 C164.32,567.42 163.66,565.48 161.99,557.00 C159.58,544.81 158.96,540.55 159.41,539.37 C159.68,538.67 159.42,535.26 158.83,531.79 C157.67,524.90 157.57,517.11 158.55,509.75 C159.11,505.58 159.48,505.00 161.59,505.00 L 164.00 505.00 L 164.00 520.64 C164.00,534.16 163.77,536.45 162.31,537.51 C160.76,538.65 160.78,538.80 162.62,539.38 C164.20,539.88 164.87,541.52 165.83,547.26 C173.75,594.20 207.78,626.02 257.47,632.93 C268.53,634.47 290.54,634.25 302.87,632.47 C352.91,625.25 409.21,598.22 483.00,546.00 C488.23,542.30 493.64,538.55 495.03,537.67 L 497.55 536.06 L 497.55 543.78 C497.54,550.25 497.98,552.34 500.25,556.69 C508.04,571.55 525.08,574.03 546.23,563.39 C562.29,555.30 590.28,534.09 611.31,514.08 L 616.13 509.50 L 615.89 516.50 C615.76,520.35 616.01,525.08 616.45,527.00 C618.69,536.83 626.94,546.43 635.73,549.42 C641.61,551.43 651.87,551.44 659.54,549.46 C677.58,544.81 707.11,525.29 743.26,494.14 C749.73,488.56 755.37,484.00 755.79,484.00 C756.21,484.00 755.88,488.71 755.07,494.48 C752.40,513.37 756.03,529.50 765.21,539.54 C784.27,560.39 815.01,557.11 859.01,529.54 C872.23,521.25 892.63,506.34 904.84,496.03 C908.87,492.63 912.32,489.99 912.51,490.18 C912.69,490.36 912.16,493.43 911.33,497.01 C908.14,510.63 911.03,524.29 918.80,532.33 C935.11,549.23 963.17,547.91 1007.76,528.16 C1029.88,518.36 1061.32,499.57 1073.30,488.98 C1078.56,484.34 1079.36,480.76 1075.28,480.18 C1073.99,480.00 1063.46,484.49 1050.23,490.85 C992.41,518.65 961.64,527.65 947.96,520.75 C937.86,515.66 937.58,503.99 947.06,484.08 C953.46,470.65 968.58,446.79 978.17,435.02 C982.94,429.16 981.62,421.34 975.32,418.12 C971.68,416.26 964.86,416.79 960.82,419.26 C957.12,421.52 947.20,432.48 932.97,450.04 C927.12,457.27 921.51,462.56 909.87,471.83 C864.16,508.26 828.97,528.36 806.89,530.67 C798.95,531.50 791.52,528.01 787.95,521.77 C785.70,517.86 785.50,516.46 785.53,505.00 C785.56,491.64 787.09,484.29 794.19,463.50 C801.08,443.32 799.27,445.91 819.26,427.76 C869.66,382.00 913.38,332.29 943.48,286.50 C959.42,262.26 968.61,244.34 974.79,225.50 C978.48,214.23 978.62,200.30 975.10,194.63 C972.36,190.24 966.44,187.06 960.93,187.02 C939.04,186.89 900.52,219.20 863.20,269.00 C826.32,318.21 792.34,380.74 770.91,438.81 L 765.63 453.12 L 754.56 462.98 C714.89,498.33 679.84,523.20 662.08,528.59 C652.64,531.45 645.36,529.70 643.00,524.00 C640.92,518.97 642.33,508.62 646.56,497.88 C652.86,481.88 652.00,475.58 643.16,472.93 C637.38,471.20 631.92,473.14 625.18,479.31 C610.18,493.04 581.80,515.48 564.80,527.06 C540.15,543.84 526.36,547.51 528.39,536.76 C531.77,518.79 562.09,485.84 591.73,467.92 C612.61,455.30 634.51,450.01 644.42,455.20 C646.77,456.43 654.32,462.95 654.83,464.19 C655.02,464.64 652.76,465.00 649.83,465.00 C644.57,465.00 644.44,464.93 641.77,460.50 C639.24,456.31 637.00,454.67 637.00,457.00 C637.00,457.62 634.72,457.77 631.01,457.41 C626.02,456.92 624.47,457.17 621.65,458.91 C619.79,460.06 616.89,461.00 615.21,461.00 C610.89,461.00 603.31,464.48 598.83,468.54 C596.60,470.55 593.94,472.00 592.49,472.00 C591.11,472.00 589.21,472.90 588.27,474.00 C587.33,475.10 586.15,476.00 585.65,476.00 C585.15,476.00 581.66,479.16 577.90,483.03 C574.14,486.90 570.82,490.05 570.53,490.03 C570.24,490.01 569.54,490.00 568.98,490.00 C568.42,490.00 564.71,493.15 560.73,497.00 C556.75,500.84 552.96,503.99 552.30,504.00 C551.63,504.00 550.81,505.69 550.47,507.75 C549.50,513.56 549.19,514.10 546.18,515.24 C543.44,516.27 539.00,522.50 539.00,525.31 C539.00,526.09 537.88,528.38 536.50,530.40 C534.04,534.03 533.18,538.00 534.85,538.00 C537.35,538.00 542.73,535.32 545.10,532.90 C546.65,531.31 549.46,529.83 551.65,529.43 C553.77,529.05 556.37,528.58 557.43,528.39 C559.42,528.03 560.96,526.31 560.98,524.40 C561.01,522.94 564.47,519.00 565.74,519.00 C566.30,519.00 567.32,518.33 568.00,517.50 C568.68,516.67 570.06,516.00 571.05,516.00 C573.02,516.00 579.41,511.08 578.55,510.22 C577.68,509.35 580.11,507.00 581.89,507.00 C584.38,507.00 593.76,500.32 594.49,498.02 C594.85,496.91 595.55,496.00 596.06,496.00 C597.88,496.00 608.01,488.54 608.57,486.79 C608.88,485.80 609.58,485.00 610.13,485.00 C610.67,485.00 610.83,484.54 610.48,483.98 C610.14,483.41 610.22,483.06 610.68,483.19 C611.80,483.52 620.22,478.06 621.65,476.09 C624.92,471.56 627.09,469.99 631.46,469.01 C637.44,467.67 643.74,467.98 645.16,469.70 C645.76,470.41 647.76,471.00 649.60,471.00 C652.46,471.00 653.05,471.41 653.55,473.75 C653.87,475.26 654.78,477.69 655.57,479.15 C657.36,482.48 657.38,484.47 655.61,487.29 C654.85,488.50 653.94,491.11 653.60,493.07 C653.26,495.04 651.97,497.73 650.74,499.05 C649.51,500.38 648.44,502.82 648.37,504.48 C648.30,506.14 647.84,509.75 647.35,512.50 C646.25,518.68 646.69,522.00 648.59,522.00 C649.39,522.00 650.56,523.12 651.18,524.50 C651.91,526.09 653.14,527.00 654.58,527.00 C657.63,527.00 666.31,523.20 667.30,521.43 C668.53,519.24 674.14,516.68 677.50,516.79 C680.89,516.90 683.13,515.53 684.87,512.26 C685.52,511.03 687.42,509.32 689.08,508.46 C690.75,507.60 692.98,506.02 694.05,504.95 C695.12,503.88 696.46,503.00 697.03,503.00 C697.60,503.00 700.34,501.20 703.12,499.00 C705.90,496.80 708.81,495.00 709.59,495.00 C710.37,495.00 711.00,494.33 711.00,493.51 C711.00,492.69 712.69,490.92 714.75,489.57 C716.81,488.22 720.70,485.07 723.38,482.57 C726.07,480.07 729.76,477.49 731.59,476.83 C733.70,476.07 735.35,474.56 736.13,472.69 C736.81,471.04 738.69,469.17 740.42,468.42 C742.12,467.68 744.56,465.94 745.85,464.54 C747.14,463.15 748.61,462.26 749.10,462.56 C749.60,462.87 750.06,462.42 750.12,461.56 C750.19,460.70 750.31,459.45 750.38,458.78 C750.44,458.11 751.46,457.08 752.63,456.50 C756.10,454.77 762.86,446.74 763.57,443.50 C763.93,441.85 764.57,440.05 764.98,439.50 C765.39,438.95 766.02,437.26 766.38,435.75 C766.74,434.24 767.48,433.00 768.02,433.00 C768.56,433.00 769.00,432.24 769.00,431.32 C769.00,427.79 773.58,415.96 775.40,414.79 C776.00,414.40 776.60,413.27 776.72,412.29 C777.27,407.79 778.49,404.21 780.66,400.77 C781.95,398.72 783.00,396.69 783.00,396.27 C783.01,395.53 786.06,389.30 789.01,384.00 C789.78,382.62 790.53,380.74 790.68,379.82 C790.84,378.89 791.87,376.64 792.97,374.82 C794.07,372.99 795.38,370.60 795.87,369.50 C800.52,359.11 816.72,329.21 819.06,326.71 C820.10,325.59 821.30,322.87 821.74,320.66 C822.33,317.69 823.30,316.22 825.49,315.01 C827.58,313.84 828.73,312.19 829.47,309.27 C830.08,306.82 831.61,304.29 833.25,303.01 C835.10,301.56 836.21,299.55 836.64,296.84 C837.01,294.52 837.96,292.57 838.89,292.22 C841.35,291.29 842.93,289.42 844.59,285.44 C845.42,283.45 847.91,279.94 850.13,277.66 C852.34,275.37 854.80,271.96 855.59,270.09 C856.38,268.21 859.30,264.61 862.07,262.09 C865.20,259.24 867.61,255.99 868.43,253.50 C869.26,251.04 870.75,249.01 872.33,248.22 C873.73,247.52 875.14,246.13 875.46,245.12 C875.78,244.12 877.38,242.10 879.02,240.64 C880.66,239.18 882.00,237.65 882.00,237.24 C882.00,236.83 883.33,235.62 884.94,234.53 C886.56,233.45 888.34,231.54 888.92,230.28 C889.49,229.03 890.40,228.00 890.94,228.00 C891.48,228.00 894.08,225.67 896.71,222.83 C903.70,215.28 909.70,209.28 911.22,208.33 C911.95,207.87 913.34,206.26 914.30,204.75 C915.26,203.24 916.71,202.00 917.53,202.00 C918.35,202.00 919.98,200.89 921.16,199.53 C922.34,198.17 925.49,196.33 928.16,195.45 C930.82,194.56 933.00,193.23 933.00,192.48 C933.00,190.03 937.18,187.94 940.75,188.61 C943.42,189.11 944.52,188.76 946.54,186.74 C949.51,183.77 952.85,182.99 962.38,183.04 C969.16,183.08 969.70,183.26 973.65,186.79 C975.93,188.83 978.93,192.78 980.31,195.56 C982.53,199.99 982.80,201.65 982.52,209.06 C982.34,213.70 981.74,218.85 981.18,220.50 C979.04,226.83 978.00,230.70 978.00,232.31 C978.00,233.22 976.65,236.16 975.00,238.85 C973.35,241.53 972.00,244.17 972.00,244.72 C972.00,249.11 943.42,297.52 937.69,302.85 C936.30,304.14 934.60,306.62 933.92,308.35 C933.24,310.08 931.58,312.62 930.24,314.00 C924.71,319.66 914.00,334.22 914.00,336.07 C914.00,337.26 913.01,338.43 911.53,338.99 C910.17,339.51 908.78,341.01 908.45,342.34 C908.12,343.66 906.79,345.31 905.49,346.00 C904.20,346.70 901.27,349.56 898.98,352.37 C894.93,357.35 882.21,371.31 854.39,401.30 C853.78,401.96 851.12,404.30 848.48,406.50 C843.50,410.64 837.14,416.79 833.26,421.21 C832.03,422.62 829.44,424.51 827.51,425.43 C825.58,426.34 824.00,427.43 824.00,427.84 C824.00,429.03 816.75,436.45 813.75,438.33 C812.24,439.27 811.00,440.69 811.00,441.47 C811.00,442.25 809.77,443.48 808.27,444.20 C806.70,444.95 805.17,446.77 804.64,448.50 C804.15,450.15 802.68,453.83 801.37,456.69 C800.07,459.54 799.00,463.20 799.00,464.81 C799.00,466.43 798.33,468.32 797.50,469.00 C796.67,469.68 795.98,471.20 795.96,472.37 C795.95,473.54 795.29,475.62 794.50,477.00 C793.71,478.38 793.05,480.71 793.04,482.19 C793.02,483.67 792.55,485.16 792.00,485.50 C791.45,485.84 790.99,489.13 790.98,492.81 C790.97,499.60 788.74,508.50 787.71,505.89 C787.41,505.13 787.12,505.74 787.08,507.25 C787.04,508.76 787.42,510.00 787.93,510.00 C789.24,510.00 790.55,514.31 790.92,519.75 C790.96,520.46 792.33,521.00 794.09,521.00 C796.37,521.00 797.33,521.54 797.72,523.04 C799.01,527.96 809.85,529.15 814.15,524.85 C815.73,523.27 821.60,522.25 825.34,522.91 C825.80,522.99 827.77,521.25 829.71,519.03 C832.70,515.61 833.84,515.00 837.15,515.00 C839.66,515.00 841.26,514.48 841.62,513.54 C842.18,512.08 845.74,510.40 847.34,510.83 C848.52,511.15 855.00,507.02 855.00,505.94 C855.00,505.44 856.82,504.11 859.05,502.98 C861.28,501.84 863.33,500.31 863.61,499.58 C863.89,498.85 866.00,497.42 868.31,496.41 C870.61,495.40 873.82,493.32 875.44,491.79 C877.06,490.25 878.83,489.00 879.39,489.00 C879.94,489.00 881.58,487.86 883.03,486.48 C884.48,485.09 886.68,483.75 887.93,483.51 C890.77,482.97 892.75,481.36 893.50,479.00 C893.82,478.00 895.82,476.49 897.96,475.63 C900.09,474.78 902.13,473.16 902.49,472.04 C902.84,470.92 904.12,469.48 905.32,468.84 C909.71,466.50 914.84,461.75 914.35,460.47 C913.84,459.13 917.29,456.62 918.28,457.62 C919.26,458.59 922.85,456.05 923.53,453.90 C924.91,449.54 930.39,443.04 946.10,427.10 C949.19,423.97 952.24,420.42 952.89,419.21 C953.55,417.98 955.03,417.00 956.22,417.00 C957.40,417.00 959.37,416.06 960.59,414.92 C961.81,413.77 964.60,412.60 966.79,412.30 C971.03,411.73 978.37,413.59 977.49,415.01 C976.61,416.44 979.08,417.65 983.35,417.88 C985.52,417.99 985.71,418.46 985.88,424.03 C986.06,430.11 984.53,438.07 983.21,437.87 C981.01,437.54 980.06,438.39 978.64,441.93 C977.78,444.09 976.49,446.23 975.77,446.68 C974.42,447.53 965.00,461.17 965.00,462.27 C965.00,463.38 959.21,471.45 957.21,473.12 C956.14,474.02 954.94,476.49 954.54,478.61 C954.15,480.74 952.51,484.42 950.91,486.79 C949.31,489.16 948.00,491.66 948.00,492.35 C948.00,493.04 947.56,494.04 947.02,494.58 C946.49,495.11 945.93,498.86 945.77,502.91 C945.54,509.33 945.75,510.42 947.45,511.39 C948.52,512.00 950.96,514.19 952.86,516.25 C956.45,520.13 958.73,520.87 960.80,518.80 C961.47,518.13 964.37,517.49 967.25,517.36 C974.66,517.04 977.05,516.51 982.08,514.07 C986.50,511.92 993.17,509.90 996.00,509.85 C998.40,509.81 1005.13,507.04 1007.66,505.05 C1008.94,504.05 1011.67,502.91 1013.74,502.53 C1015.81,502.15 1018.40,501.03 1019.50,500.05 C1021.21,498.53 1023.71,497.53 1028.50,496.47 C1031.09,495.89 1039.62,491.39 1042.25,489.21 C1043.05,488.54 1045.15,487.83 1046.91,487.62 C1048.67,487.42 1051.09,486.35 1052.30,485.25 C1055.56,482.29 1058.48,481.01 1060.93,481.49 C1062.33,481.76 1064.70,480.69 1067.58,478.49 C1071.63,475.40 1072.32,475.18 1074.78,476.26 C1076.28,476.92 1077.72,477.74 1078.00,478.08 C1078.28,478.42 1079.51,479.23 1080.75,479.89 C1081.99,480.54 1083.00,481.87 1083.00,482.85 C1083.00,483.84 1081.99,485.58 1080.75,486.73 C1079.51,487.88 1077.67,490.01 1076.66,491.47 C1075.64,492.93 1073.17,494.86 1071.16,495.76 C1069.15,496.66 1064.96,499.84 1061.85,502.82 C1057.20,507.28 1055.43,508.33 1051.85,508.73 C1047.68,509.20 1044.41,510.75 1045.44,511.77 C1046.67,513.01 1043.73,515.82 1040.77,516.23 C1035.50,516.96 1034.70,517.33 1031.32,520.72 C1029.54,522.49 1026.84,524.21 1025.30,524.55 C1020.70,525.56 1017.32,527.05 1013.87,529.59 C1012.08,530.92 1009.61,532.00 1008.38,532.00 C1007.15,532.00 1005.44,532.71 1004.57,533.57 C1003.71,534.44 1003.00,534.89 1003.00,534.58 C1003.00,533.65 992.92,537.76 991.06,539.45 C990.11,540.30 987.90,541.00 986.14,541.00 C984.38,541.00 981.32,541.68 979.33,542.50 C977.35,543.33 974.78,544.22 973.62,544.47 C972.45,544.73 969.70,545.36 967.50,545.88 C965.30,546.40 960.20,546.84 956.17,546.86 C952.13,546.88 948.21,547.41 947.45,548.04 C946.68,548.68 944.40,549.24 942.37,549.30 C939.61,549.38 938.31,548.85 937.22,547.20 C936.41,545.99 934.99,545.00 934.06,545.00 C931.91,545.00 923.30,542.28 920.00,540.57 C918.62,539.85 917.01,539.45 916.40,539.67 C914.87,540.22 912.71,537.37 912.39,534.37 C912.24,532.99 910.29,529.87 908.06,527.45 C905.83,525.03 904.00,522.57 904.00,521.99 C904.00,521.03 906.58,514.27 907.16,513.73 C907.30,513.60 906.08,512.12 904.45,510.43 C901.71,507.58 901.22,507.43 897.50,508.29 C895.03,508.86 892.35,510.48 890.50,512.52 C888.85,514.34 886.62,515.98 885.53,516.17 C884.45,516.36 882.88,517.86 882.03,519.51 C880.30,522.89 878.97,524.10 877.79,523.37 C877.35,523.10 875.75,523.75 874.24,524.83 C872.73,525.90 871.14,526.78 870.71,526.79 C868.11,526.81 864.00,529.48 864.00,531.14 C864.00,533.07 861.80,534.37 856.65,535.47 C855.09,535.81 852.58,537.43 851.08,539.08 C849.58,540.72 846.58,542.52 844.42,543.08 C838.47,544.63 835.00,546.14 835.00,547.18 C835.00,547.70 834.55,547.84 834.00,547.50 C833.45,547.16 833.00,547.39 833.00,548.00 C833.00,548.61 832.55,548.84 832.00,548.50 C831.45,548.16 831.00,548.31 831.00,548.83 C831.00,550.00 828.46,551.10 824.57,551.62 C822.96,551.83 820.64,552.66 819.41,553.47 C818.18,554.27 815.90,554.95 814.34,554.96 C808.92,555.02 803.48,555.85 799.00,557.28 C796.32,558.14 793.69,558.41 792.50,557.93 C791.40,557.50 788.03,557.11 785.00,557.07 C780.24,557.00 779.02,556.55 775.96,553.75 C774.01,551.96 771.08,550.34 769.46,550.15 C764.97,549.61 763.00,548.19 763.00,545.46 C763.00,544.11 762.55,543.00 762.00,543.00 C761.45,543.00 759.14,541.25 756.87,539.10 C753.42,535.85 752.84,534.78 753.39,532.60 C754.06,529.92 752.59,526.71 748.63,522.24 C747.08,520.49 746.90,519.70 747.81,518.79 C749.97,516.63 749.19,512.31 746.25,510.08 L 743.50 507.99 L 746.25 505.71 C749.65,502.89 750.12,498.00 747.00,498.00 C745.90,498.00 745.00,498.46 745.00,499.02 C745.00,499.58 743.43,500.78 741.51,501.70 C739.59,502.61 737.73,504.27 737.38,505.38 C736.30,508.78 734.18,510.12 729.32,510.48 C726.97,510.66 723.93,512.73 724.28,513.91 C724.67,515.18 718.30,521.79 715.10,523.45 C713.39,524.33 712.00,525.45 712.00,525.95 C712.00,526.44 710.46,527.35 708.58,527.97 C706.70,528.59 704.49,530.13 703.67,531.38 C702.85,532.64 700.15,534.44 697.67,535.38 C695.19,536.33 692.44,538.21 691.56,539.55 C690.68,540.90 689.09,542.00 688.03,542.00 C686.98,542.00 684.52,542.94 682.58,544.09 C679.48,545.91 677.47,546.64 674.76,546.92 C674.35,546.97 672.85,548.31 671.43,549.90 C669.79,551.75 667.50,553.00 665.17,553.34 C663.15,553.64 658.89,554.32 655.71,554.86 C652.53,555.40 648.70,555.49 647.21,555.06 C645.04,554.44 640.09,555.17 634.36,556.96 C634.28,556.98 633.50,555.20 632.62,553.00 C631.74,550.80 630.76,549.00 630.45,549.00 C630.14,549.00 630.19,549.49 630.56,550.10 C631.04,550.87 630.68,550.91 629.37,550.24 C628.34,549.71 625.81,549.25 623.75,549.22 C621.69,549.19 619.49,549.13 618.88,549.08 C618.18,549.03 617.97,547.91 618.33,546.12 C618.78,543.86 618.22,542.42 615.70,539.37 C611.28,534.02 608.64,528.50 609.29,525.99 C609.79,524.07 609.55,523.94 606.67,524.56 C604.93,524.94 603.35,525.64 603.16,526.13 C602.98,526.61 602.51,526.81 602.11,526.57 C601.72,526.33 600.30,527.90 598.96,530.07 C597.61,532.24 595.76,534.26 594.83,534.55 C593.14,535.09 587.85,539.62 580.50,546.83 C578.30,548.99 573.69,552.12 570.26,553.80 C566.82,555.47 562.16,558.42 559.89,560.36 C557.62,562.30 554.36,564.20 552.63,564.57 C550.91,564.94 547.87,566.07 545.87,567.08 C543.88,568.09 541.99,568.66 541.68,568.35 C541.37,568.04 539.99,568.92 538.61,570.30 C536.68,572.22 535.28,572.73 532.58,572.48 C530.54,572.29 527.40,572.95 525.15,574.04 C520.74,576.17 518.02,575.75 511.61,571.95 C509.47,570.68 506.14,569.38 504.20,569.07 C501.05,568.56 500.30,567.79 497.33,562.00 C495.50,558.42 494.22,554.91 494.49,554.20 C494.76,553.48 494.22,551.68 493.29,550.20 C492.36,548.71 491.53,547.37 491.43,547.21 C490.98,546.47 485.18,549.67 482.49,552.15 C480.83,553.68 477.71,555.30 475.55,555.75 C472.80,556.32 471.16,557.39 470.06,559.33 C469.20,560.85 467.38,562.65 466.00,563.32 C464.62,564.00 463.35,565.59 463.17,566.87 C462.87,568.92 462.45,569.12 459.52,568.57 C455.46,567.81 451.57,569.45 450.17,572.53 C449.08,574.92 447.32,576.08 438.00,580.60 C434.98,582.07 431.38,584.28 430.00,585.51 C428.62,586.74 426.25,588.04 424.72,588.40 C423.20,588.76 421.04,589.96 419.93,591.07 C418.83,592.17 416.93,593.51 415.71,594.03 C414.49,594.55 412.34,595.91 410.93,597.05 C408.63,598.90 406.61,599.68 403.50,599.92 C402.95,599.97 401.20,601.12 399.62,602.48 C398.04,603.84 396.35,604.71 395.87,604.42 C395.39,604.12 395.00,604.29 395.00,604.78 C395.00,605.91 390.51,608.00 388.07,608.00 C387.06,608.00 385.53,609.07 384.67,610.38 C383.81,611.69 381.85,613.00 380.31,613.30 C373.51,614.60 369.48,616.01 366.75,618.03 C365.13,619.22 362.84,620.31 361.66,620.44 C358.30,620.81 352.00,623.31 352.00,624.26 C352.00,624.73 351.54,624.83 350.97,624.48 C350.41,624.13 348.05,624.75 345.72,625.85 C343.40,626.95 339.91,628.04 337.96,628.28 C336.01,628.53 333.53,629.18 332.46,629.75 C326.37,632.92 324.22,633.48 319.00,633.25 C314.32,633.04 312.98,633.37 311.43,635.07 C309.82,636.86 308.79,637.06 304.03,636.56 C298.73,636.00 273.67,637.27 269.50,638.31 C268.40,638.59 266.60,638.58 265.50,638.29 ZM 273.87 593.93 C252.72,590.82 234.29,578.38 226.17,561.71 C220.79,550.69 219.00,541.92 219.00,526.66 C219.00,494.28 232.65,457.08 259.66,415.85 C286.67,374.64 334.10,324.22 378.50,289.52 C434.05,246.11 496.42,216.02 539.00,212.08 C555.88,210.53 565.31,212.40 570.95,218.44 C573.97,221.66 574.84,230.62 573.01,239.45 C571.24,247.96 561.24,266.94 551.90,279.50 C544.11,289.98 521.79,313.19 505.25,328.00 C498.26,334.27 498.00,334.66 498.00,339.06 C498.00,342.85 498.52,344.13 501.07,346.56 C503.66,349.04 504.94,349.50 509.35,349.50 C514.11,349.50 515.43,348.92 524.61,342.81 C535.63,335.47 555.08,317.50 565.45,305.06 C583.85,283.00 597.64,256.01 599.64,238.13 C600.41,231.25 601.68,229.21 603.60,231.74 C605.16,233.79 605.41,239.90 604.07,243.20 C603.55,244.47 602.38,248.20 601.47,251.50 C599.08,260.08 597.90,263.14 595.82,266.17 C594.81,267.63 593.70,270.33 593.36,272.17 C593.02,274.00 591.52,276.85 590.03,278.50 C588.54,280.15 586.73,283.08 586.01,285.00 C585.30,286.92 583.43,289.85 581.85,291.50 C576.88,296.72 568.51,308.32 567.60,311.27 C567.30,312.24 565.91,313.46 564.51,313.99 C563.12,314.53 561.46,316.09 560.83,317.48 C560.20,318.87 559.06,320.00 558.31,320.00 C557.55,320.00 556.00,321.58 554.87,323.50 C553.73,325.42 552.38,327.00 551.87,327.00 C551.35,327.00 548.00,329.80 544.42,333.23 C540.83,336.66 536.35,340.08 534.45,340.84 C532.55,341.59 531.00,342.60 531.00,343.08 C531.00,343.56 529.54,344.69 527.75,345.60 C525.96,346.51 523.74,348.05 522.81,349.03 C521.85,350.02 518.78,351.11 515.81,351.51 C512.89,351.90 509.96,352.66 509.29,353.20 C508.63,353.73 507.55,353.84 506.89,353.43 C506.24,353.03 504.12,352.57 502.18,352.42 C499.55,352.21 497.53,351.00 494.15,347.62 C490.00,343.47 489.73,342.90 490.79,340.55 C491.43,339.15 492.60,338.00 493.39,338.00 C494.48,338.00 494.64,337.33 494.06,335.25 C493.00,331.48 495.19,327.48 499.06,326.13 C501.75,325.19 503.16,323.22 503.24,320.28 C503.25,319.85 505.91,318.01 509.15,316.18 C512.40,314.35 516.95,310.84 519.27,308.37 C521.60,305.90 526.29,300.87 529.70,297.19 C533.11,293.51 536.97,289.38 538.29,288.00 C539.60,286.62 541.86,283.62 543.30,281.33 C544.75,279.03 547.75,275.69 549.97,273.91 C552.18,272.12 554.00,269.92 554.00,269.00 C554.00,268.08 554.32,267.02 554.70,266.63 C555.09,266.24 555.56,264.82 555.74,263.46 C555.92,262.11 558.08,258.12 560.53,254.61 C562.99,251.10 565.00,247.78 565.00,247.23 C565.00,246.69 565.67,245.68 566.50,245.00 C568.41,243.41 568.42,238.32 566.51,234.67 C565.21,232.17 565.21,231.50 566.52,228.97 C569.61,222.99 567.42,219.00 561.05,219.00 C558.89,219.00 556.71,218.35 556.00,217.50 C555.32,216.68 554.11,216.00 553.32,216.00 C552.49,216.00 552.18,215.51 552.60,214.84 C553.13,213.98 550.91,213.87 543.90,214.39 C538.73,214.78 534.35,215.53 534.17,216.05 C533.77,217.19 529.29,217.18 526.50,216.04 C524.94,215.40 523.68,216.01 520.77,218.79 C517.39,222.03 516.58,222.34 511.94,222.13 C506.87,221.90 497.00,224.43 497.00,225.96 C497.00,227.03 492.39,228.71 487.66,229.37 C485.33,229.69 482.89,230.90 481.46,232.45 C480.16,233.85 478.51,235.03 477.80,235.08 C477.08,235.12 475.83,235.32 475.00,235.52 C474.17,235.73 472.24,236.16 470.69,236.48 C469.15,236.80 465.12,239.07 461.74,241.53 C458.36,243.99 455.00,246.00 454.26,246.00 C453.53,246.00 451.92,246.66 450.69,247.47 C449.46,248.27 447.00,249.04 445.23,249.18 C443.12,249.34 442.09,249.90 442.25,250.81 C442.39,251.60 440.12,253.48 437.00,255.15 C433.98,256.78 431.37,258.47 431.21,258.92 C431.05,259.36 428.21,260.80 424.90,262.11 C421.59,263.43 416.57,266.25 413.74,268.38 C410.92,270.52 407.16,272.87 405.39,273.61 C403.62,274.35 401.20,276.32 400.02,277.98 C398.83,279.64 397.39,281.00 396.80,281.00 C396.21,281.00 394.25,282.58 392.44,284.50 C390.29,286.77 388.21,288.00 386.51,288.00 C385.06,288.00 384.12,288.38 384.41,288.85 C385.04,289.88 381.81,292.89 377.00,295.77 C375.08,296.92 371.25,300.14 368.50,302.92 C365.75,305.70 362.76,307.98 361.86,307.99 C360.96,307.99 359.95,309.08 359.62,310.39 C359.26,311.81 358.03,313.03 356.58,313.39 C355.23,313.73 353.84,314.92 353.49,316.04 C353.13,317.16 351.08,319.19 348.92,320.55 C346.76,321.91 345.00,323.39 345.00,323.84 C345.00,324.29 343.88,325.26 342.50,326.00 C341.12,326.74 340.00,328.09 340.00,329.00 C340.00,329.91 338.84,331.28 337.41,332.05 C335.99,332.81 334.21,334.63 333.45,336.10 C332.69,337.56 331.03,339.03 329.77,339.34 C328.41,339.68 327.00,341.17 326.32,342.96 C325.55,345.00 324.49,346.00 323.10,346.00 C321.68,346.00 320.57,347.10 319.56,349.50 C318.76,351.42 317.47,353.00 316.69,353.00 C315.31,353.00 310.21,358.37 301.96,368.50 C297.71,373.72 289.81,382.77 284.25,388.79 C282.46,390.72 281.00,393.11 281.00,394.08 C281.00,395.06 279.69,396.90 278.09,398.18 C275.18,400.50 267.00,412.06 267.00,413.85 C267.00,414.37 265.88,415.85 264.52,417.15 C263.15,418.44 262.03,419.90 262.02,420.40 C262.01,420.89 260.42,423.22 258.50,425.57 C256.58,427.91 255.00,430.35 255.00,430.97 C255.00,432.67 251.88,438.36 250.32,439.50 C249.57,440.06 248.68,442.31 248.35,444.50 C248.02,446.70 246.76,449.46 245.55,450.63 C244.34,451.80 242.55,455.29 241.58,458.38 C240.61,461.47 239.47,464.00 239.04,464.00 C238.62,464.00 237.50,466.14 236.56,468.75 C235.62,471.36 233.70,475.96 232.29,478.97 C230.88,481.98 229.51,486.03 229.25,487.97 C228.99,489.91 228.38,492.26 227.89,493.18 C227.40,494.11 227.00,495.83 227.00,497.00 C227.00,498.17 226.44,500.11 225.76,501.32 C225.08,502.52 224.42,505.75 224.29,508.50 C223.57,524.07 223.55,533.22 224.22,539.00 C225.26,547.88 229.89,561.83 232.03,562.51 C232.96,562.80 234.42,564.85 235.29,567.05 C236.40,569.89 237.72,571.36 239.82,572.09 C241.91,572.82 242.94,573.96 243.35,576.02 C243.85,578.48 248.16,582.11 250.49,582.02 C254.03,581.88 255.49,582.45 258.16,585.00 C261.53,588.23 261.68,588.28 267.11,588.03 C272.19,587.80 287.31,589.95 288.45,591.07 C289.79,592.38 297.74,592.23 298.58,590.88 C299.02,590.17 301.01,589.96 304.00,590.31 C307.27,590.70 309.37,590.43 310.78,589.44 C311.90,588.65 316.09,587.79 320.09,587.53 C324.08,587.27 327.81,586.59 328.37,586.03 C328.94,585.46 330.41,585.00 331.64,585.00 C332.87,585.00 334.13,584.60 334.44,584.10 C334.74,583.61 338.87,582.63 343.62,581.92 C349.07,581.11 352.86,580.01 353.88,578.94 C355.56,577.19 358.00,576.21 362.74,575.40 C367.21,574.63 369.35,573.84 372.00,572.00 C373.38,571.05 375.85,570.01 377.50,569.69 C384.44,568.37 386.56,567.56 388.95,565.34 C390.34,564.05 392.00,563.00 392.63,563.00 C394.60,563.00 401.59,559.56 403.50,557.64 C404.75,556.40 406.30,555.96 408.40,556.27 C410.99,556.65 412.19,556.03 415.90,552.36 C419.07,549.24 421.21,547.97 423.41,547.88 C425.11,547.82 426.95,547.66 427.50,547.54 C428.05,547.41 429.06,547.24 429.75,547.15 C430.44,547.07 431.01,545.99 431.02,544.75 C431.02,543.51 431.36,542.05 431.77,541.50 C432.61,540.35 437.45,540.29 440.72,541.38 C442.53,541.98 443.04,541.67 443.54,539.68 C444.50,535.86 450.03,531.12 454.01,530.71 C458.56,530.23 461.00,529.10 461.00,527.46 C461.00,525.10 463.81,523.26 468.50,522.55 C471.80,522.06 473.85,521.03 475.72,518.93 C477.16,517.32 479.31,516.00 480.50,516.00 C481.83,516.00 483.11,515.06 483.77,513.61 C484.46,512.10 486.62,510.57 489.68,509.45 C492.33,508.47 495.53,506.62 496.79,505.34 C498.05,504.05 500.12,503.00 501.38,503.00 C503.79,503.00 505.15,501.83 512.66,493.28 C515.18,490.41 518.04,487.80 519.01,487.50 C519.99,487.19 521.74,484.70 522.92,481.97 C524.09,479.24 525.50,477.00 526.05,477.00 C526.60,477.00 527.47,475.89 527.99,474.54 C528.58,472.97 530.09,471.78 532.13,471.25 C534.26,470.69 536.15,469.13 537.75,466.60 C539.08,464.50 539.57,463.14 538.84,463.58 C537.73,464.25 537.72,464.11 538.82,462.76 C539.54,461.87 541.35,461.17 542.84,461.21 C544.83,461.27 547.13,459.78 551.53,455.57 C557.43,449.90 562.25,447.00 565.73,447.00 C566.71,447.00 568.08,446.10 568.77,445.00 C569.48,443.86 571.10,443.00 572.52,443.00 C574.28,443.00 575.62,442.03 577.01,439.75 C578.09,437.96 579.32,436.65 579.74,436.83 C581.30,437.50 589.42,435.77 591.68,434.29 C592.97,433.44 596.01,432.69 598.43,432.61 C601.16,432.52 603.61,431.76 604.90,430.59 C606.57,429.08 607.93,428.83 611.98,429.31 C614.91,429.66 617.00,429.51 617.00,428.95 C617.00,427.53 630.75,427.75 631.23,429.18 C631.48,429.94 633.75,430.30 637.56,430.20 C646.04,429.96 652.12,432.24 656.48,437.31 C660.39,441.85 660.51,441.97 664.54,445.67 C667.02,447.95 667.21,448.64 666.72,453.46 C665.91,461.31 662.56,465.29 657.66,464.22 C655.95,463.85 655.97,463.71 657.97,462.31 C665.77,456.84 659.23,443.68 645.30,436.83 C639.19,433.82 637.83,433.55 626.60,433.19 C612.28,432.72 602.42,434.67 587.45,440.92 C562.67,451.27 535.59,472.40 519.11,494.24 C515.29,499.29 512.20,501.56 493.14,513.32 C426.76,554.25 377.97,577.38 334.59,588.49 C312.14,594.24 289.70,596.25 273.87,593.93 ZM 160.90 498.25 C160.12,496.20 160.25,493.84 161.38,489.00 C162.22,485.42 163.13,481.15 163.41,479.50 C164.40,473.64 165.86,468.74 166.92,467.68 C167.52,467.08 168.00,465.56 168.00,464.29 C168.00,463.01 168.40,461.19 168.89,460.24 C169.38,459.28 170.53,455.91 171.44,452.75 C172.36,449.59 173.51,447.00 174.01,447.00 C174.51,447.00 175.43,445.09 176.04,442.75 C176.66,440.41 177.76,437.57 178.49,436.43 C179.22,435.29 180.38,432.36 181.08,429.93 C181.78,427.49 182.83,424.83 183.42,424.00 C185.48,421.14 187.00,418.02 187.00,416.67 C187.00,415.92 187.95,414.45 189.12,413.40 C191.03,411.68 196.00,401.95 196.00,399.92 C196.00,399.46 197.11,397.98 198.46,396.63 C199.81,395.28 201.23,392.90 201.61,391.34 C202.37,388.25 204.67,384.85 209.84,379.18 C211.68,377.16 213.79,374.05 214.54,372.26 C215.28,370.47 217.01,368.50 218.37,367.88 C219.73,367.26 221.11,365.69 221.44,364.39 C221.77,363.09 223.41,360.56 225.09,358.76 C230.30,353.21 242.17,338.01 242.38,336.64 C242.62,335.01 255.56,321.99 259.25,319.68 C260.76,318.73 262.00,317.30 262.00,316.50 C262.00,315.70 263.18,314.27 264.63,313.32 C269.21,310.32 274.00,305.68 274.00,304.24 C274.00,302.07 276.40,300.00 278.93,300.00 C279.45,300.00 280.16,299.07 280.52,297.94 C280.88,296.81 282.26,295.38 283.58,294.78 C284.91,294.18 286.84,292.25 287.87,290.49 C289.09,288.44 290.81,287.09 292.72,286.71 C295.22,286.21 314.21,271.19 320.13,265.04 C321.03,264.10 323.28,262.77 325.13,262.08 C326.98,261.39 329.48,260.43 330.67,259.97 C331.87,259.50 332.99,258.08 333.17,256.82 C333.37,255.46 334.32,254.37 335.50,254.16 C336.60,253.96 338.21,253.16 339.08,252.39 C339.95,251.63 341.04,251.33 341.49,251.75 C341.95,252.16 342.03,251.99 341.67,251.36 C340.91,250.03 344.28,247.62 348.25,246.64 C349.76,246.27 351.00,245.53 351.00,244.99 C351.00,244.46 352.62,243.35 354.59,242.53 C356.56,241.70 358.42,240.12 358.71,239.01 C359.00,237.91 359.74,236.93 360.37,236.85 C360.99,236.77 362.17,236.62 363.00,236.51 C366.17,236.11 371.03,233.49 371.53,231.91 C371.82,231.00 374.04,229.49 376.46,228.57 C378.89,227.64 382.54,225.56 384.57,223.94 C386.61,222.32 388.87,221.00 389.60,221.00 C390.33,221.00 391.41,220.10 392.00,219.00 C392.71,217.68 394.09,217.00 396.07,217.00 C398.96,217.00 402.91,215.05 405.96,212.12 C407.97,210.20 413.89,207.81 414.99,208.49 C415.48,208.80 417.23,207.73 418.88,206.12 C420.53,204.50 423.26,202.92 424.94,202.59 C426.62,202.27 429.29,201.75 430.86,201.45 C432.44,201.15 434.58,200.12 435.61,199.17 C439.74,195.37 442.62,194.00 446.50,194.00 C448.73,194.00 451.44,193.39 452.53,192.64 C453.61,191.89 456.15,190.98 458.17,190.61 C460.19,190.24 464.46,188.61 467.67,186.98 C472.07,184.75 474.89,184.02 479.15,184.01 C483.46,184.00 486.13,183.30 490.45,181.03 C495.28,178.49 496.92,178.12 501.76,178.49 C505.67,178.79 507.90,178.50 508.96,177.55 C510.82,175.90 514.44,175.42 518.50,176.28 C522.28,177.08 542.05,175.60 547.88,174.08 C551.47,173.14 552.65,173.20 554.53,174.43 C555.79,175.25 558.99,176.46 561.66,177.11 C564.32,177.76 567.03,178.70 567.68,179.21 C568.32,179.71 571.25,180.33 574.18,180.59 C579.67,181.07 582.00,182.74 582.00,186.19 C582.00,187.19 582.48,188.00 583.06,188.00 C583.64,188.00 583.83,188.47 583.47,189.05 C583.03,189.75 584.46,189.88 587.86,189.42 C592.80,188.77 592.91,188.81 593.55,191.63 C594.81,197.16 596.38,199.70 599.18,200.76 C601.81,201.75 602.00,202.20 602.00,207.41 C602.00,210.49 602.44,213.00 602.99,213.00 C603.53,213.00 604.68,214.68 605.54,216.74 C606.70,219.52 606.84,221.06 606.07,222.74 C604.71,225.72 601.18,225.73 600.61,222.75 C597.67,207.25 595.48,202.40 588.04,194.94 C581.69,188.56 574.92,184.95 563.50,181.86 C551.79,178.69 525.71,178.72 507.50,181.91 C474.33,187.73 441.28,199.49 403.50,218.92 C366.06,238.18 334.59,259.07 301.00,286.98 C284.48,300.70 251.18,334.22 237.82,350.57 C199.22,397.79 174.59,446.50 166.42,491.75 C164.65,501.53 162.93,503.56 160.90,498.25 ZM 817.02 407.39 C817.04,405.69 842.71,354.41 850.49,340.50 C876.53,293.99 903.20,256.16 927.98,230.63 C940.93,217.28 951.74,209.00 956.21,209.00 C959.10,209.00 959.11,209.01 958.63,214.25 C956.56,236.56 925.42,287.31 882.11,338.96 C863.35,361.33 816.97,410.09 817.02,407.39 ZM 844.18 372.99 C845.99,371.33 847.48,369.26 847.49,368.38 C847.50,367.51 849.06,366.05 850.97,365.15 C852.88,364.24 854.99,362.41 855.65,361.07 C856.32,359.74 857.76,358.16 858.85,357.57 C860.82,356.51 867.00,349.31 867.00,348.08 C867.00,347.72 868.35,346.63 870.00,345.66 C871.65,344.68 873.00,343.29 873.00,342.57 C873.00,341.85 874.51,339.96 876.35,338.38 C878.20,336.79 880.44,334.06 881.35,332.31 C882.25,330.56 883.88,328.50 884.97,327.73 C886.07,326.97 887.65,324.69 888.49,322.67 C889.34,320.65 890.69,319.00 891.49,319.00 C892.30,319.00 893.75,317.76 894.71,316.25 C895.68,314.74 897.04,312.91 897.74,312.18 C898.43,311.45 899.00,310.24 899.00,309.50 C899.00,308.75 900.32,307.20 901.93,306.05 C903.54,304.90 905.40,302.33 906.05,300.33 C906.71,298.34 909.67,294.29 912.63,291.33 C916.68,287.28 918.00,285.24 918.00,283.03 C918.00,280.95 919.29,278.69 922.41,275.30 C928.07,269.14 933.51,261.02 934.99,256.53 C935.63,254.59 936.49,253.00 936.89,253.00 C938.05,253.00 942.00,245.45 942.00,243.24 C942.00,242.14 942.74,240.63 943.65,239.87 C946.06,237.87 947.99,232.67 947.30,230.03 C946.86,228.36 947.32,227.27 948.98,226.02 C952.00,223.74 952.77,217.00 950.01,217.00 C949.00,217.00 947.13,218.25 945.84,219.77 C942.58,223.62 936.63,228.00 934.66,228.00 C933.74,228.00 933.07,228.34 933.16,228.75 C933.97,232.45 926.88,242.00 923.32,242.00 C922.59,242.00 921.94,242.68 921.88,243.50 C921.81,244.32 921.69,245.55 921.62,246.22 C921.56,246.89 920.38,247.99 919.00,248.65 C915.14,250.52 908.14,258.00 905.52,263.06 C904.22,265.57 902.45,268.21 901.58,268.94 C900.71,269.66 900.00,270.64 900.00,271.12 C900.00,271.60 897.72,274.80 894.93,278.24 C892.14,281.69 889.21,286.02 888.42,287.89 C887.63,289.75 886.06,292.08 884.94,293.06 C883.81,294.03 882.44,296.45 881.90,298.42 C881.35,300.39 880.30,302.00 879.57,302.00 C877.78,302.00 875.09,306.24 874.34,310.25 C874.01,312.04 872.64,314.62 871.31,316.00 C868.22,319.17 862.84,327.55 861.00,332.04 C860.21,333.94 858.55,336.62 857.29,337.99 C856.03,339.36 855.00,341.47 855.00,342.69 C855.00,343.90 853.66,346.16 852.01,347.70 C850.30,349.31 848.88,351.78 848.69,353.50 C848.50,355.15 847.61,357.91 846.71,359.62 C845.82,361.34 845.40,363.07 845.79,363.46 C846.18,363.86 845.29,365.15 843.81,366.34 C840.85,368.72 837.81,373.89 838.61,375.18 C839.49,376.60 840.77,376.09 844.18,372.99 ZM 987.62 394.11 C985.90,393.33 983.87,392.57 983.10,392.42 C981.14,392.02 980.28,390.33 979.54,385.42 C979.19,383.08 978.25,380.62 977.45,379.96 C975.46,378.31 975.63,376.64 978.00,374.50 C979.10,373.50 980.00,371.83 980.00,370.78 C980.00,368.91 981.69,364.99 982.92,364.00 C983.27,363.73 984.35,362.24 985.33,360.70 C986.31,359.15 987.88,357.60 988.81,357.25 C989.74,356.90 991.10,356.02 991.83,355.30 C992.56,354.58 995.14,353.49 997.58,352.88 C1000.01,352.26 1002.00,351.37 1002.00,350.88 C1002.00,349.60 1008.40,349.80 1009.72,351.12 C1010.34,351.74 1012.34,352.42 1014.16,352.63 C1019.59,353.26 1020.78,353.94 1021.84,356.96 C1022.39,358.54 1023.78,360.78 1024.92,361.92 C1029.77,366.77 1025.30,380.79 1016.21,389.16 C1012.46,392.62 1011.36,393.12 1008.74,392.60 C1006.64,392.18 1005.12,392.49 1003.91,393.59 C1001.61,395.67 991.78,395.98 987.62,394.11 ZM 1008.02 389.99 C1016.31,385.76 1022.78,374.83 1021.71,366.84 C1020.71,359.42 1014.49,353.99 1007.00,354.01 C993.82,354.04 980.14,370.81 983.93,382.29 C986.99,391.57 998.02,395.09 1008.02,389.99 Z" fill="rgb(250,250,250)"/>
</g>
</svg>